<?xml version="1.0" encoding="UTF-8" standalone="no"?>
<svg
   xmlns:dc="http://purl.org/dc/elements/1.1/"
   xmlns:cc="http://creativecommons.org/ns#"
   xmlns:rdf="http://www.w3.org/1999/02/22-rdf-syntax-ns#"
   xmlns:svg="http://www.w3.org/2000/svg"
   xmlns="http://www.w3.org/2000/svg"
   xmlns:xlink="http://www.w3.org/1999/xlink"
   id="svg3719"
   version="1.1"
   viewBox="0 0 288.46106 305.12903"
   height="305.12903mm"
   width="288.46106mm">
  <defs
     id="defs3713" />
  <metadata
     id="metadata3716">
    <rdf:RDF>
      <cc:Work
         rdf:about="">
        <dc:format>image/svg+xml</dc:format>
        <dc:type
           rdf:resource="http://purl.org/dc/dcmitype/StillImage" />
        <dc:title></dc:title>
      </cc:Work>
    </rdf:RDF>
  </metadata>
  
  <g
     style="display:inline"
     transform="translate(-113.42117,84.687358)"
     id="layer8">
    <path
       transform="scale(0.26458333)"
       id="path2628"
       d="m 764.92671,777.71489 c -8.63816,-58.64771 -38.74364,-131.94279 -90.31882,-219.89098 -3.54788,-6.05 -6.50638,-11.19603 -6.57444,-11.43563 -0.0681,-0.23959 6.85125,-1.84279 15.37625,-3.56265 36.37045,-7.3375 57.65899,-13.24639 77.5,-21.51106 29.85462,-12.43577 63.6143,-30.38218 92.99265,-49.43425 2.74596,-1.78077 5.07247,-3.15796 5.17001,-3.06042 0.15758,0.15759 -92.84615,314.29595 -93.15373,314.64499 -0.0683,0.0776 -0.51469,-2.50995 -0.99192,-5.75 z"
       style="opacity:1;fill:#296bcc;fill-opacity:1;stroke:#296bcc;stroke-width:2.64566922;stroke-linecap:round;stroke-linejoin:round;stroke-miterlimit:4;stroke-dasharray:none;stroke-opacity:1;paint-order:normal" />
    <path
       transform="scale(0.26458333)"
       id="path2630"
       d="m 1002.1941,-129.5855 c -117.73762,-6.53281 -227.55417,-35.30463 -329.75002,-86.39415 -6.4625,-3.23072 -11.75,-6.2152 -11.75,-6.63217 0,-1.88796 24.37254,-18.97021 39,-27.33436 8.86961,-5.07174 32.76633,-16.49634 34.5,-16.49384 0.55,7.9e-4 3.25,1.8215 6,4.04602 57.08297,46.17539 135.36377,72.79377 239.5,81.43889 39.22682,3.25652 116.32812,3.52212 166.94872,0.57512 9.5967,-0.5587 17.6761,-0.78837 17.9541,-0.51037 0.278,0.27799 0.5902,9.37609 0.6937,20.21798 0.1035,10.8419 0.6475,21.14789 1.2088,22.90222 1.2671,3.96062 2.174,3.73546 -23.3053,5.78638 -43.9612,3.53859 -102.503,4.53434 -141,2.39828 z"
       style="opacity:1;fill:#ffcc00;fill-opacity:1;stroke:#ffcc00;stroke-width:5.29133844;stroke-linecap:round;stroke-linejoin:round;stroke-miterlimit:4;stroke-dasharray:none;stroke-opacity:1;paint-order:normal" />
    <path
       transform="scale(0.26458333)"
       id="path2908"
       d="m 1013.7525,-185.01829 c -27.71392,-1.33599 -68.70676,-5.00438 -69.96329,-6.2609 -0.95007,-0.95008 -2.45042,-40.13607 -3.08889,-80.67571 l -0.66796,-42.41217 14.91332,0.62533 c 17.41813,0.73037 37.55236,3.20677 70.91332,8.72196 63.3442,10.47197 103.8071,24.78992 141.4346,50.04715 11.8654,7.96454 25.1152,18.40569 25.0017,19.7019 -0.035,0.4004 -2.1247,2.44461 -4.6435,4.54269 -10.553,8.79026 -17.2121,19.716 -20.7037,33.96898 l -2.2577,9.21633 -21.9157,1.1729 c -29.1813,1.56175 -107.6176,2.38339 -129.0222,1.35154 z"
       style="opacity:1;fill:#82f087;fill-opacity:1;stroke:#82f087;stroke-width:5.29133844;stroke-linecap:round;stroke-linejoin:round;stroke-miterlimit:4;stroke-dasharray:none;stroke-opacity:1;paint-order:normal" />
    <path
       transform="scale(0.26458333)"
       id="path2910"
       d="m 877.28813,-203.52148 c -50.743,-13.42078 -89.93338,-31.50234 -125.54468,-57.9235 l -10.65091,-7.90224 2.68049,-1.40446 c 3.95163,-2.07046 28.86068,-11.68875 42.04025,-16.23326 32.48241,-11.20041 72.45769,-20.53847 105.29573,-24.59666 l 5.25,-0.6488 -0.0285,29.34383 c -0.0265,27.27507 -0.98041,54.87672 -2.57808,74.59384 -0.54246,6.69453 -0.97252,8.23549 -2.28098,8.17303 -0.88686,-0.0423 -7.26938,-1.57314 -14.18336,-3.40178 z"
       style="opacity:1;fill:#82f087;fill-opacity:1;stroke:#82f087;stroke-width:5.29133844;stroke-linecap:round;stroke-linejoin:round;stroke-miterlimit:4;stroke-dasharray:none;stroke-opacity:1;paint-order:normal" />
    <path
       transform="scale(0.26458333)"
       id="path2912"
       d="m 566.88217,114.48151 c 0,-3.1155 8.06088,-18.222017 12.72924,-23.855288 2.48406,-2.997488 8.39247,-7.233504 13.80787,-9.899496 9.07458,-4.467401 10.13936,-4.657892 25.75906,-4.608358 14.55147,0.04615 17.27585,0.468386 25.48558,3.949893 5.05581,2.144023 11.10158,5.4775 13.43503,7.407727 l 4.24264,3.509503 -14.84924,-0.8791 c -18.07426,-1.070028 -40.93312,1.16959 -51.13552,5.010048 -4.40497,1.658154 -12.12358,6.683691 -18.5145,12.054671 -6.02809,5.06605 -10.96016,8.35573 -10.96016,7.3104 z"
       style="opacity:1;fill:#0086cc;fill-opacity:1;stroke:#0087cc;stroke-width:4.08188963;stroke-linecap:round;stroke-linejoin:round;stroke-miterlimit:4;stroke-dasharray:none;stroke-opacity:1;paint-order:normal" />
    <path
       transform="scale(0.26458333)"
       id="path6658"
       d="m 887.91519,827.24793 c -34.925,-0.18276 -78.03538,-0.36495 -95.80083,-0.40488 l -32.30083,-0.0726 5.93599,-20.125 c 3.2648,-11.06875 27.3788,-92.87065 53.58668,-181.782 l 47.65069,-161.65699 9.35373,-6.70519 c 42.12597,-30.19784 72.87448,-59.0662 90.38234,-84.85582 l 3.98837,-5.875 h 104.72697 c 59.6677,0 104.7269,0.18861 104.7269,0.43837 0,0.2411 -1.0292,3.44735 -2.2871,7.125 -8.2202,24.03287 -20.424,48.60706 -30.5215,61.45949 -2.3843,3.03494 -2.687,4.37369 -1.277,5.64965 1.3041,1.18026 2.5529,1.04702 8.3415,-0.88998 13.1003,-4.38361 24.939,-11.6968 62.5205,-38.62107 26.1411,-18.72811 39.8663,-27.70251 50.6917,-33.14544 l 4.0097,-2.01602 h 17.0471 17.047 l -0.2929,2.625 c -0.1611,1.44375 -0.8554,9.375 -1.5429,17.625 -5.0262,60.31944 -13.3514,131.57909 -22.4896,192.5 -3.0263,20.1753 -5.636,36.30616 -5.9196,36.58973 -0.195,0.19503 -42.7205,-4.14894 -221.9238,-22.66945 -9.5408,-0.98604 -17.9137,-1.65054 -18.6064,-1.47668 -0.9108,0.2286 -1.4113,0.83383 -1.808,2.18626 -0.3016,1.02858 -14.2284,54.18264 -30.9484,118.12014 l -30.39995,116.25 -10.19518,0.0299 c -5.60735,0.0164 -38.77018,-0.11967 -73.69518,-0.30243 z"
       style="opacity:1;fill:#82f087;fill-opacity:1;stroke:#82f087;stroke-width:2.64566922;stroke-linecap:round;stroke-linejoin:round;stroke-miterlimit:4;stroke-dasharray:none;stroke-opacity:1;paint-order:normal" />
    <path
       transform="scale(0.26458333)"
       id="path6660"
       d="m 1179.2403,365.14546 c -0.4943,-0.49434 -22.244,-0.67726 -104.0424,-0.875 l -103.41739,-0.25 3.192,-5.73659 c 9.00848,-16.18984 14.07018,-32.49385 21.91135,-70.57771 2.07392,-10.07287 4.24544,-20.37601 4.82564,-22.89586 l 1.0549,-4.58154 3.0317,4.14585 c 5.7954,7.92503 10.6019,11.6392 15.8038,12.2121 3.1425,0.3461 11.1308,-1.74961 16.5295,-4.33647 13.642,-6.53676 21.9913,-17.47197 28.5119,-37.34242 3.4264,-10.44131 5.4765,-20.16063 10.0153,-47.48153 5.0868,-30.61997 5.4524,-33.6391 6.0738,-50.15583 1.2217,-32.47279 -1.5468,-50.298888 -10.0075,-64.436889 -7.8948,-13.192418 -18.1255,-19.140505 -33.0577,-19.219593 -7.4822,-0.03963 -11.1305,0.767123 -17.9784,3.975601 -14.9372,6.998575 -33.38179,23.687608 -50.87012,46.028271 -4.9279,6.29521 -12.4911,17.4967 -13.83061,20.48387 -0.80028,1.78466 -1.17927,2.10118 -2.73314,2.28258 -3.20797,0.37451 -11.99484,-0.5561 -29.60059,-3.135 -9.48043,-1.3887 -20.11675,-2.6615 -23.63626,-2.82844 -5.58651,-0.26499 -6.35926,-0.40492 -6.08528,-1.10197 0.87723,-2.23178 3.32779,-13.04197 4.20473,-18.54843 3.88915,-24.420418 3.12732,-47.419748 -2.25048,-67.941496 -0.96444,-3.680324 -1.67059,-6.774446 -1.5692,-6.875827 0.10138,-0.101381 67.45843,-0.127706 149.68235,-0.0585 l 149.498,0.125826 -1.1551,5.25 c -15.2963,69.524057 -28.0657,109.840157 -46.9556,148.249997 -13.0091,26.45191 -28.1387,49.52785 -46.1746,70.42584 -3.0501,3.53422 -5.5457,6.81873 -5.5457,7.29892 0,0.4802 1.7136,3.10107 3.8081,5.82416 2.0944,2.7231 7.9821,10.78251 13.0836,17.90981 5.1016,7.1273 11.5267,15.78059 14.278,19.22954 8.2699,10.36667 22.0363,23.56173 24.582,23.56173 1.7256,0 2.4792,-0.92241 6.4888,-7.94305 26.897,-47.09459 45.0958,-107.56856 59.2262,-196.80695 3.0132,-19.029476 13.0333,-90.561287 13.0333,-93.042832 0,-0.113941 2.0108,-0.207165 4.4686,-0.207165 h 4.4685 l -0.2264,1.625 c -0.1246,0.89375 -1.1297,10.175001 -2.2336,20.625001 -15.2456,144.317156 -32.4717,245.517236 -52.8315,310.374996 -1.2733,4.05625 -2.4569,7.375 -2.6303,7.375 -0.1734,0 -0.5965,-0.28125 -0.9402,-0.625 z"
       style="opacity:1;fill:#82f087;fill-opacity:1;stroke:#82f087;stroke-width:2.64566922;stroke-linecap:round;stroke-linejoin:round;stroke-miterlimit:4;stroke-dasharray:none;stroke-opacity:1;paint-order:normal" />
    <path
       transform="scale(0.26458333)"
       id="path6662"
       d="m 1278.8848,362.54657 c 2.1833,-0.92103 4.2898,-2.09119 4.6812,-2.60035 0.6082,-0.79115 0.6687,-7.17807 0.4164,-43.92576 -0.4182,-60.89114 -1.5757,-104.70617 -6.8204,-258.167506 -0.5482,-16.042129 -0.9968,-29.823379 -0.9968,-30.625 v -1.457493 h 14.206 14.2061 l 0.284,1.875 c 0.827,5.461094 2.8864,26.708625 4.0343,41.625001 3.0767,39.978508 3.9783,66.534248 3.9723,116.999998 0,40.1364 -0.3585,56.89307 -1.974,93.5 -1.1167,25.30494 -4.1749,75.26001 -5.0276,82.125 l -0.2949,2.375 -15.3281,-0.0246 -15.3281,-0.0247 z"
       style="opacity:1;fill:#82f087;fill-opacity:1;stroke:#82f087;stroke-width:2.64566922;stroke-linecap:round;stroke-linejoin:round;stroke-miterlimit:4;stroke-dasharray:none;stroke-opacity:1;paint-order:normal" />
    <path
       transform="scale(0.26458333)"
       id="path6664"
       d="m 893.80185,22.770461 c -4.4052,-10.89092 -9.227,-17.2592046 -15.32609,-20.2415796 -2.75925,-1.349235 0.10971,-0.89787 -54.06057,-8.505155 -30.99683,-4.3529704 -53.19127,-7.6447004 -65.75,-9.7515954 -19.80624,-3.322765 -37.89199,-4.784305 -83.5,-6.74777 -67.69209,-2.9142 -92.96111,-5.386855 -112.54082,-11.012475 -8.80745,-2.530545 -17.45918,-6.92656 -17.45918,-8.87115 0,-0.81771 11.09376,-29.753935 15.76496,-41.120275 14.3334,-34.877181 28.86091,-62.561771 41.9766,-79.993371 9.35536,-12.43389 25.05421,-30.19391 35.81101,-40.51283 7.04336,-6.75664 15.52798,-14.30662 15.88341,-14.13375 0.17271,0.084 5.80585,2.9248 12.51809,6.3129 99.50549,50.22681 207.15233,79.48052 321.29593,87.3142 21.38531,1.46767 30.26901,1.80358 55.50001,2.09852 38.9639,0.45547 75.2107,-1.09203 113.5763,-4.84895 5.5419,-0.5427 10.5176,-0.98672 11.057,-0.98672 0.7445,0 1.5353,1.14705 3.283,4.7621 1.2663,2.61916 3.0252,5.82541 3.9088,7.125 9.0031,13.24252 22.6092,22.916391 38.6183,27.457466 2.5061,0.710875 4.6355,1.359295 4.7319,1.440935 0.096,0.08164 -1.0729,5.28205 -2.5984,11.556465 -3.6592,15.049665 -8.0353,35.02884 -15.4767,70.6580354 l -6.1091,29.2499996 -150.1983,0.25 -150.19831,0.25 z"
       style="opacity:1;fill:#82f087;fill-opacity:1;stroke:#82f087;stroke-width:2.64566922;stroke-linecap:round;stroke-linejoin:round;stroke-miterlimit:4;stroke-dasharray:none;stroke-opacity:1;paint-order:normal" />
    <path
       transform="scale(0.26458333)"
       id="path6666"
       d="m 1275.9605,19.645461 c -0.6987,-10.8445746 -3.0488,-103.993115 -2.6499,-105.032694 0.1735,-0.452062 1.5223,-0.799447 3.9343,-1.013238 2.0186,-0.178931 4.1372,-0.454631 4.7079,-0.612666 0.9262,-0.256466 1.1597,0.132788 2.1741,3.623131 6.9882,24.046734 14.4455,61.833317 18.7802,95.160467 0.6974,5.3625 1.3727,10.36875 1.5006,11.125 l 0.2325,1.375 h -14.1908 -14.1909 z"
       style="opacity:1;fill:#82f087;fill-opacity:1;stroke:#82f087;stroke-width:2.64566922;stroke-linecap:round;stroke-linejoin:round;stroke-miterlimit:4;stroke-dasharray:none;stroke-opacity:1;paint-order:normal" />
    <path
       transform="scale(0.26458333)"
       id="path6668"
       d="m 1229.6659,23.145461 c 9e-4,-1.44171 4.9493,-37.94549 7.2694,-53.625 2.1859,-14.772497 5.7328,-36.216584 7.8286,-47.330702 l 1.571,-8.330703 1.5401,-0.235034 c 0.8471,-0.12927 1.6356,-0.147588 1.7521,-0.04071 0.1166,0.10688 -0.1691,3.623962 -0.6347,7.815738 -0.4657,4.191775 -2.9803,28.208909 -5.5881,53.371409 -2.6077,25.16250042 -4.8731,46.59375 -5.0341,47.625 l -0.2929,1.875 h -4.2061 c -4.0287,0 -4.206,-0.04745 -4.2053,-1.125 z"
       style="opacity:1;fill:#82f087;fill-opacity:1;stroke:#82f087;stroke-width:2.64566922;stroke-linecap:round;stroke-linejoin:round;stroke-miterlimit:4;stroke-dasharray:none;stroke-opacity:1;paint-order:normal" />
    <path
       transform="scale(0.26458333)"
       id="path6670"
       d="m 567.78525,552.80089 c -13.03568,-3.99447 -22.43895,-8.30949 -25.10265,-11.51919 -1.44858,-1.74551 -1.88553,-9.95585 -1.89664,-35.63814 -0.0126,-29.23906 -0.36924,-34.6146 -2.88059,-43.42297 l -2.86617,-10.05286 15.60852,-0.88648 c 34.39429,-1.95341 98.34001,-19.51639 98.34001,-27.00953 0,-3.45564 -3.2945,-3.25439 -13.1464,0.80312 -11.75991,4.84331 -35.08004,11.60805 -54.02874,15.67275 -10.26493,2.20193 -19.37638,3.06216 -33.23402,3.13762 l -19.09189,0.10397 -6.62169,-4.63172 c -8.13297,-5.68881 -13.8844,-12.33862 -13.8844,-16.05312 0,-6.5218 9.03587,-17.22648 16.0189,-18.97736 1.69014,-0.42378 8.48235,0.52568 15.0938,2.10991 25.07359,6.00809 52.88737,5.14201 91.63184,-2.8533 28.08913,-5.79648 31.40474,-6.75331 31.40474,-9.06293 0,-1.09084 -0.60756,-2.35884 -1.35015,-2.81778 -0.74258,-0.45894 -13.9478,1.76344 -29.34494,4.93863 -36.99179,7.62842 -63.94974,8.97695 -86.40476,4.32223 -8.01315,-1.66105 -17.55909,-4.0213 -21.2132,-5.24501 -12.39495,-4.15087 -20.07887,-12.38804 -20.07887,-21.52454 0,-5.32539 4.73859,-7.22954 20.50609,-8.2402 14.72067,-0.94355 27.61488,1.82615 47.86058,10.28054 21.93694,9.16064 31.69601,11.51037 55.51027,13.36544 21.00494,1.63624 24.50391,1.13383 22.81188,-3.27553 -0.56808,-1.48041 -5.07488,-2.23879 -17.5119,-2.94683 -24.57269,-1.39892 -33.08591,-3.24786 -53.75704,-11.67525 -10.24393,-4.17633 -22.01726,-8.47472 -26.16295,-9.55199 -12.35108,-3.20945 -29.09286,-4.0116 -39.00389,-1.86879 -4.86135,1.05106 -8.83062,1.85975 -8.82059,1.79711 0.0101,-0.0626 1.28283,-4.14807 2.82843,-9.07872 4.0653,-12.96882 3.67852,-20.66554 -1.56592,-31.16059 -5.58508,-11.17672 -11.07849,-15.49299 -23.8444,-18.73492 -13.18641,-3.34873 -30.81754,-12.78163 -40.74124,-21.79716 -7.44185,-6.76079 -7.78718,-7.37576 -6.87428,-12.24194 0.52865,-2.81796 13.58556,-30.16593 29.01535,-60.77325 l 28.05416,-55.6497 5.1352,-21.91092 c 2.82436,-12.05101 8.39214,-35.911638 12.37284,-53.023622 10.33391,-44.422691 29.21972,-109.775166 32.26761,-111.658867 0.57689,-0.356535 3.55169,0.590045 6.61068,2.103512 15.52956,7.683413 45.485,11.647754 111.57972,14.766603 56.03256,2.64404 78.63287,4.447016 100.40916,8.0102992 9.33381,1.527304 38.92623,5.8931057 65.76093,9.70178085 l 48.79037,6.92486355 4.41134,4.8013954 c 14.94018,16.261176 19.54635,69.368165 8.96526,103.365265 -1.70941,5.49235 -2.18743,9.09534 -1.32159,9.96118 0.74607,0.74607 4.38467,1.20285 8.08576,1.01507 3.70111,-0.18778 15.93963,0.96302 27.19673,2.55735 11.2571,1.59433 24.06024,2.89877 28.45143,2.89877 h 7.98397 l 5.16996,-8.83883 c 12.96313,-22.16252 40.75213,-50.487005 57.97723,-59.094489 14.8485,-7.419903 30.2805,-4.966422 40.2612,6.401018 10.3128,11.745673 13.4473,25.434328 13.215,57.711481 -0.1448,20.1175 -0.9614,28.56567 -5.3311,55.15433 -7.8895,48.00545 -14.0891,65.89897 -26.6688,76.97209 -7.6364,6.7218 -20.2768,11.32259 -24.6614,8.97607 -5.3073,-2.84042 -12.9133,-13.81322 -20.02376,-28.88738 -4.4069,-9.34263 -7.91181,-15.05619 -9.236,-15.05619 -4.08035,0 -3.54958,3.84589 2.16025,15.6531 3.15889,6.53219 5.47709,12.57079 5.15154,13.41912 -0.32554,0.84835 -3.23107,14.09871 -6.45673,29.44525 -7.75466,36.89387 -11.56619,49.89858 -19.18569,65.46038 -8.56838,17.49977 -20.6693,33.57494 -38.69047,51.39743 -40.17193,39.72903 -102.07459,81.6989 -158.41761,107.4068 -33.00441,15.05907 -47.90084,19.33999 -112.66748,32.37829 -23.38112,4.7069 -47.56418,10.17159 -53.74012,12.14374 -14.38932,4.59494 -25.82593,4.59594 -40.81268,0.004 z M 796.75987,154.29398 c 3.48216,-5.31443 9.31371,-21.19659 8.14903,-22.1938 -0.58562,-0.50144 -12.20172,-3.00821 -25.81352,-5.57061 -29.05233,-5.46903 -55.33374,-12.3989 -69.66521,-18.36927 -6.38261,-2.65895 -15.29705,-8.254962 -23.67289,-14.860608 C 660.44402,73.336268 642.42149,66.48753 615.0466,66.428957 c -19.61172,-0.04196 -26.08087,2.44628 -36.08777,13.88052 -10.73074,12.261327 -21.89498,38.495493 -21.89498,51.449673 0,10.30862 18.1413,17.83505 47.37615,19.65534 18.50974,1.1525 34.55167,-0.94334 63.02635,-8.23425 22.74151,-5.82292 23.75707,-5.95207 47.28231,-6.01306 23.49809,-0.061 24.35037,0.0421 37.69728,4.55767 7.5106,2.541 18.96573,7.13736 25.45584,10.21413 13.79623,6.54038 15.9403,6.80813 18.85809,2.355 z m 36.95915,-85.021198 c 0.43712,-1.139118 -0.57263,-3.991462 -2.2439,-6.338542 -2.4949,-3.503768 -5.76667,-5.131249 -18.28317,-9.094646 C 804.80748,51.18462 795.45582,47.738733 792.4105,46.182069 789.36518,44.625404 777.12041,34.375136 765.19992,23.403694 753.27942,12.432254 740.5515,1.7111136 736.91565,-0.42106086 726.15206,-6.7331556 714.98128,-8.8817448 699.64783,-7.5891522 650.07588,-3.4102926 616.8046,1.6075111 593.37244,8.4387594 574.27019,14.007693 566.46833,17.903968 562.91863,23.647492 c -4.20788,6.808497 -8.54324,19.845682 -9.60578,28.886261 -0.81034,6.894721 -0.64905,7.496445 2.00949,7.496445 1.58981,0 14.56445,-5.806197 28.83254,-12.902658 21.6888,-10.78727 28.99033,-13.674202 44.53519,-17.608629 27.57314,-6.978803 48.36594,-9.504633 71.91646,-8.736133 24.23131,0.790716 27.03904,1.766212 53.84241,18.706662 10.83319,6.846853 21.00009,13.245389 22.59311,14.218969 10.04491,6.138923 43.74471,17.382647 52.65584,17.568286 1.77451,0.03697 3.58401,-0.864795 4.02113,-2.003913 z"
       style="opacity:1;fill:#296bcc;fill-opacity:1;stroke:#296bcc;stroke-width:7.48308277;stroke-linecap:round;stroke-linejoin:round;stroke-miterlimit:4;stroke-dasharray:none;stroke-opacity:1;paint-order:normal" />
    <path
       transform="scale(0.26458333)"
       id="path6672"
       d="m 569.66145,368.15038 c -7.37471,-3.06281 -10.83746,-4.28336 -15.57845,-5.49108 -4.90085,-1.24844 -9.76,-2.08422 -14.80505,-2.54646 -9.77135,-0.8953 -17.00563,-0.7591 -23.35662,0.43972 -2.97396,0.56136 -6.74796,1.58655 -10.07627,2.73715 -0.46183,0.15966 -0.85306,0.29029 -0.86941,0.29029 -0.0412,1e-5 0.38393,-1.62958 0.73783,-2.82842 0.31115,-1.05404 1.13589,-3.55193 2.56086,-7.75607 0.90925,-2.6826 1.45824,-4.40796 1.86324,-5.85573 1.05608,-3.77524 1.56321,-6.85173 1.56321,-9.48313 v -0.9025 h 29.91946 29.91945 v 16.08668 c 0,8.84767 -0.005,16.08527 -0.0111,16.08355 -0.006,-0.002 -0.84632,-0.35001 -1.8672,-0.774 z"
       style="opacity:1;fill:#296bcc;fill-opacity:1;stroke:#296bcc;stroke-width:0.23384634;stroke-linecap:round;stroke-linejoin:round;stroke-miterlimit:4;stroke-dasharray:none;stroke-opacity:1;paint-order:normal" />
    <path
       transform="scale(0.26458333)"
       id="path6674"
       d="m 569.66145,368.15038 c -7.37471,-3.06281 -10.83746,-4.28336 -15.57845,-5.49108 -4.90085,-1.24844 -9.76,-2.08422 -14.80505,-2.54646 -9.77135,-0.8953 -17.00563,-0.7591 -23.35662,0.43972 -2.97396,0.56136 -6.74796,1.58655 -10.07627,2.73715 -0.46183,0.15966 -0.85306,0.29029 -0.86941,0.29029 -0.0412,1e-5 0.38393,-1.62958 0.73783,-2.82842 0.31115,-1.05404 1.13589,-3.55193 2.56086,-7.75607 0.90925,-2.6826 1.45824,-4.40796 1.86324,-5.85573 1.05608,-3.77524 1.56321,-6.85173 1.56321,-9.48313 v -0.9025 h 29.91946 29.91945 v 16.08668 c 0,8.84767 -0.005,16.08527 -0.0111,16.08355 -0.006,-0.002 -0.84632,-0.35001 -1.8672,-0.774 z"
       style="opacity:1;fill:#296bcc;fill-opacity:1;stroke:#296bcc;stroke-width:0.23384634;stroke-linecap:round;stroke-linejoin:round;stroke-miterlimit:4;stroke-dasharray:none;stroke-opacity:1;paint-order:normal" />
    <path
       transform="scale(0.26458333)"
       id="path6676"
       d="m 569.66145,368.15038 c -7.37471,-3.06281 -10.83746,-4.28336 -15.57845,-5.49108 -4.90085,-1.24844 -9.76,-2.08422 -14.80505,-2.54646 -9.77135,-0.8953 -17.00563,-0.7591 -23.35662,0.43972 -2.97396,0.56136 -6.74796,1.58655 -10.07627,2.73715 -0.46183,0.15966 -0.85306,0.29029 -0.86941,0.29029 -0.0412,1e-5 0.38393,-1.62958 0.73783,-2.82842 0.31115,-1.05404 1.13589,-3.55193 2.56086,-7.75607 0.90925,-2.6826 1.45824,-4.40796 1.86324,-5.85573 1.05608,-3.77524 1.56321,-6.85173 1.56321,-9.48313 v -0.9025 h 29.91946 29.91945 v 16.08668 c 0,8.84767 -0.005,16.08527 -0.0111,16.08355 -0.006,-0.002 -0.84632,-0.35001 -1.8672,-0.774 z"
       style="opacity:1;fill:#296bcc;fill-opacity:1;stroke:#296bcc;stroke-width:0.23384634;stroke-linecap:round;stroke-linejoin:round;stroke-miterlimit:4;stroke-dasharray:none;stroke-opacity:1;paint-order:normal" />
    <path
       transform="scale(0.26458333)"
       id="path6678"
       d="m 569.66145,368.15038 c -7.37471,-3.06281 -10.83746,-4.28336 -15.57845,-5.49108 -4.90085,-1.24844 -9.76,-2.08422 -14.80505,-2.54646 -9.77135,-0.8953 -17.00563,-0.7591 -23.35662,0.43972 -2.97396,0.56136 -6.74796,1.58655 -10.07627,2.73715 -0.46183,0.15966 -0.85306,0.29029 -0.86941,0.29029 -0.0412,1e-5 0.38393,-1.62958 0.73783,-2.82842 0.31115,-1.05404 1.13589,-3.55193 2.56086,-7.75607 0.90925,-2.6826 1.45824,-4.40796 1.86324,-5.85573 1.05608,-3.77524 1.56321,-6.85173 1.56321,-9.48313 v -0.9025 h 29.91946 29.91945 v 16.08668 c 0,8.84767 -0.005,16.08527 -0.0111,16.08355 -0.006,-0.002 -0.84632,-0.35001 -1.8672,-0.774 z"
       style="opacity:1;fill:#296bcc;fill-opacity:1;stroke:#296bcc;stroke-width:0.23384634;stroke-linecap:round;stroke-linejoin:round;stroke-miterlimit:4;stroke-dasharray:none;stroke-opacity:1;paint-order:normal" />
    <path
       transform="scale(0.26458333)"
       id="path6680"
       d="m 583.13983,557.2105 c -3.54439,-0.51389 -7.52368,-1.42803 -10.60661,-2.43665 -1.94454,-0.63615 -5.76292,-1.81384 -8.48528,-2.61704 -5.87038,-1.73202 -11.35948,-3.67886 -13.73614,-4.87182 -1.8469,-0.92702 -8.32829,-5.45675 -9.22388,-6.44634 -1.44566,-1.59746 -1.55865,-6.06638 -0.48273,-19.09302 0.93465,-11.31629 1.12932,-32.66999 0.35474,-38.9129 -1.43875,-11.5959 -4.42212,-24.71394 -6.82718,-30.01944 -0.56484,-1.24603 -0.97648,-2.31601 -0.91475,-2.37774 0.0617,-0.0617 1.13705,0.0692 2.38961,0.29093 3.70972,0.65673 17.03488,0.55531 22.96025,-0.17476 24.70861,-3.04436 51.4057,-9.35298 73.18556,-17.29402 7.68456,-2.80182 14.83105,-5.85016 15.82151,-6.74868 0.92882,-0.84259 1.05589,-2.54416 0.27341,-3.6613 -0.98089,-1.40042 -2.05791,-1.32156 -6.12174,0.44824 -23.38608,10.18468 -57.79057,18.94582 -85.93654,21.88382 -8.54225,0.89168 -16.33805,0.64401 -24.24533,-0.77027 -2.78227,-0.49763 -3.3757,-0.74198 -4.98456,-2.05242 -1.00446,-0.81814 -3.64026,-2.57332 -5.85734,-3.9004 -5.20256,-3.1141 -8.68461,-6.54915 -10.88225,-10.73536 -1.46554,-2.79165 -1.53834,-3.06777 -1.36807,-5.18899 0.4264,-5.31202 5.21777,-12.12407 11.42618,-16.24498 2.29456,-1.52304 6.31461,-3.33368 7.43363,-3.34813 0.40757,-0.005 3.43045,0.71156 6.71752,1.59293 7.6057,2.03934 14.67622,3.47398 22.06315,4.47673 5.01837,0.68122 7.43945,0.79351 17.32412,0.80348 22.94657,0.0232 34.36167,-1.4951 71.94811,-9.56931 19.41364,-4.17038 19.27841,-4.12474 19.34678,-6.52916 0.035,-1.23254 -1.33833,-2.80505 -2.44982,-2.80505 -0.31048,0 -4.79616,0.94624 -9.96817,2.10276 -29.06168,6.4985 -45.4147,9.44584 -57.94373,10.4433 -24.26881,1.93211 -37.82426,1.07582 -55.70679,-3.51894 -13.98639,-3.59369 -15.80223,-4.10845 -18.48731,-5.24088 -9.53715,-4.02226 -15.16745,-10.88191 -15.98872,-19.47975 -0.13732,-1.4376 -0.18783,-3.26226 -0.11225,-4.05481 0.13214,-1.38555 0.2117,-1.4688 2.06721,-2.16304 7.42911,-2.77958 13.7203,-3.89859 21.90845,-3.89683 9.63647,0.002 18.11782,1.08124 26.47113,3.36818 4.15107,1.13646 17.97104,6.52829 27.42348,10.6992 12.71678,5.61131 17.09445,6.82492 30.73605,8.52087 8.71888,1.08395 28.35202,2.51284 34.52675,2.51284 1.94397,0 2.4012,-0.12626 3.14276,-0.86782 1.0949,-1.0949 1.10482,-2.35274 0.0284,-3.60413 -0.83261,-0.96797 -0.88613,-0.97796 -6.62912,-1.23703 -18.14317,-0.81847 -33.58879,-2.36855 -42.38252,-4.2534 -4.18916,-0.89791 -9.10346,-2.65389 -16.617,-5.93758 -10.98682,-4.80165 -24.21825,-9.97468 -28.63783,-11.19639 -9.35874,-2.58705 -20.72049,-3.90328 -30.75787,-3.5632 -6.39537,0.21668 -11.1243,0.9878 -16.61556,2.7094 -1.83512,0.57534 -3.3816,1.00104 -3.43664,0.94601 -0.1449,-0.14491 1.37717,-5.10689 2.88706,-9.41186 1.83832,-5.24139 3.27272,-11.01165 3.55948,-14.31897 0.73581,-8.48621 -4.72687,-21.03703 -12.54241,-28.81692 -3.73887,-3.72181 -5.63234,-4.71 -10.8081,-5.64064 -11.686,-2.10126 -24.84502,-7.85462 -37.29132,-16.30445 -7.369,-5.00284 -14.00407,-10.81593 -16.05673,-14.06755 -0.91194,-1.44461 -0.93569,-1.59886 -0.54181,-3.51917 1.12472,-5.48333 9.22109,-22.71802 25.69078,-54.6878 20.93887,-40.64504 28.279,-55.35018 30.83943,-61.78345 l 0.8091,-2.03293 H 636.05515 780.2819 l 3.27549,1.39412 c 3.82086,1.62624 9.02548,3.55562 9.59152,3.55562 0.21634,0 1.24002,-1.11369 2.27484,-2.47487 l 1.8815,-2.47487 H 936.73762 1076.17 v 0.79549 c -0.01,1.49441 -2.1127,15.6308 -3.6983,24.83713 -0.8707,5.05581 -2.3066,13.61407 -3.1909,19.01835 -4.7219,28.85852 -9.4465,44.18257 -17.1963,55.77488 -6.2837,9.39927 -15.4869,15.32 -27.4812,17.67975 -4.7616,0.93678 -8.0037,-1.34626 -14.5891,-10.27324 -3.7201,-5.043 -4.8769,-7.17671 -11.78785,-21.74211 -3.04473,-6.417 -5.72672,-11.86259 -5.96003,-12.10131 -0.82717,-0.84646 -2.48413,-0.90823 -3.47412,-0.12951 -1.86386,1.46611 -1.81528,1.62937 4.29826,14.44258 l 5.67948,11.9035 -1.41012,5.84707 c -2.03713,8.44723 -2.58313,10.96533 -5.86714,27.06027 -4.63526,22.71703 -6.29138,29.80614 -9.41587,40.30509 -6.76125,22.71921 -16.46541,40.00265 -34.00311,60.56089 -4.76554,5.58632 -21.32941,22.0782 -28.52373,28.39974 -46.21667,40.61002 -99.46457,74.45136 -155.56349,98.86729 -22.94159,9.98488 -43.2242,15.74281 -84.49791,23.98768 -7.2913,1.4565 -14.13256,2.78268 -15.2028,2.94708 -2.96685,0.45569 -24.71031,4.81635 -32.88181,6.59444 -10.88941,2.36952 -19.91238,4.78556 -27.76679,7.43502 l -7.05822,2.3809 -6.18719,0.0797 c -3.40295,0.0438 -6.66448,0.0106 -7.24784,-0.0741 z"
       style="opacity:1;fill:#296bcc;fill-opacity:1;stroke:#296bcc;stroke-width:1.87077069;stroke-linecap:round;stroke-linejoin:round;stroke-miterlimit:4;stroke-dasharray:none;stroke-opacity:1;paint-order:normal" />
    <path
       transform="scale(0.26458333)"
       id="path6682"
       d="m 583.13983,557.2105 c -3.54439,-0.51389 -7.52368,-1.42803 -10.60661,-2.43665 -1.94454,-0.63615 -5.76292,-1.81384 -8.48528,-2.61704 -5.87038,-1.73202 -11.35948,-3.67886 -13.73614,-4.87182 -1.8469,-0.92702 -8.32829,-5.45675 -9.22388,-6.44634 -1.44566,-1.59746 -1.55865,-6.06638 -0.48273,-19.09302 0.93465,-11.31629 1.12932,-32.66999 0.35474,-38.9129 -1.43875,-11.5959 -4.42212,-24.71394 -6.82718,-30.01944 -0.56484,-1.24603 -0.97648,-2.31601 -0.91475,-2.37774 0.0617,-0.0617 1.13705,0.0692 2.38961,0.29093 3.70972,0.65673 17.03488,0.55531 22.96025,-0.17476 24.70861,-3.04436 51.4057,-9.35298 73.18556,-17.29402 7.68456,-2.80182 14.83105,-5.85016 15.82151,-6.74868 0.92882,-0.84259 1.05589,-2.54416 0.27341,-3.6613 -0.98089,-1.40042 -2.05791,-1.32156 -6.12174,0.44824 -23.38608,10.18468 -57.79057,18.94582 -85.93654,21.88382 -8.54225,0.89168 -16.33805,0.64401 -24.24533,-0.77027 -2.78227,-0.49763 -3.3757,-0.74198 -4.98456,-2.05242 -1.00446,-0.81814 -3.64026,-2.57332 -5.85734,-3.9004 -5.20256,-3.1141 -8.68461,-6.54915 -10.88225,-10.73536 -1.46554,-2.79165 -1.53834,-3.06777 -1.36807,-5.18899 0.4264,-5.31202 5.21777,-12.12407 11.42618,-16.24498 2.29456,-1.52304 6.31461,-3.33368 7.43363,-3.34813 0.40757,-0.005 3.43045,0.71156 6.71752,1.59293 7.6057,2.03934 14.67622,3.47398 22.06315,4.47673 5.01837,0.68122 7.43945,0.79351 17.32412,0.80348 22.94657,0.0232 34.36167,-1.4951 71.94811,-9.56931 19.41364,-4.17038 19.27841,-4.12474 19.34678,-6.52916 0.035,-1.23254 -1.33833,-2.80505 -2.44982,-2.80505 -0.31048,0 -4.79616,0.94624 -9.96817,2.10276 -29.06168,6.4985 -45.4147,9.44584 -57.94373,10.4433 -24.26881,1.93211 -37.82426,1.07582 -55.70679,-3.51894 -13.98639,-3.59369 -15.80223,-4.10845 -18.48731,-5.24088 -9.53715,-4.02226 -15.16745,-10.88191 -15.98872,-19.47975 -0.13732,-1.4376 -0.18783,-3.26226 -0.11225,-4.05481 0.13214,-1.38555 0.2117,-1.4688 2.06721,-2.16304 7.42911,-2.77958 13.7203,-3.89859 21.90845,-3.89683 9.63647,0.002 18.11782,1.08124 26.47113,3.36818 4.15107,1.13646 17.97104,6.52829 27.42348,10.6992 12.71678,5.61131 17.09445,6.82492 30.73605,8.52087 8.71888,1.08395 28.35202,2.51284 34.52675,2.51284 1.94397,0 2.4012,-0.12626 3.14276,-0.86782 1.0949,-1.0949 1.10482,-2.35274 0.0284,-3.60413 -0.83261,-0.96797 -0.88613,-0.97796 -6.62912,-1.23703 -18.14317,-0.81847 -33.58879,-2.36855 -42.38252,-4.2534 -4.18916,-0.89791 -9.10346,-2.65389 -16.617,-5.93758 -10.98682,-4.80165 -24.21825,-9.97468 -28.63783,-11.19639 -9.35874,-2.58705 -20.72049,-3.90328 -30.75787,-3.5632 -6.39537,0.21668 -11.1243,0.9878 -16.61556,2.7094 -1.83512,0.57534 -3.37912,1.00353 -3.43111,0.95153 -0.16291,-0.1629 1.16736,-4.54734 2.70808,-8.92563 1.99523,-5.66987 3.43602,-11.38631 3.73293,-14.81072 0.73581,-8.48621 -4.72687,-21.03703 -12.54241,-28.81692 -3.73887,-3.72181 -5.63234,-4.71 -10.8081,-5.64064 -11.686,-2.10126 -24.84502,-7.85462 -37.29132,-16.30445 -7.369,-5.00284 -14.00407,-10.81593 -16.05673,-14.06755 -0.91194,-1.44461 -0.93569,-1.59886 -0.54181,-3.51917 1.12472,-5.48333 9.22109,-22.71802 25.69078,-54.6878 20.93887,-40.64504 28.279,-55.35018 30.83943,-61.78345 l 0.8091,-2.03293 H 636.05515 780.2819 l 3.27549,1.39412 c 3.82086,1.62624 9.02548,3.55562 9.59152,3.55562 0.21634,0 1.24002,-1.11369 2.27484,-2.47487 l 1.8815,-2.47487 H 936.73762 1076.17 v 0.79549 c -0.01,1.49441 -2.1127,15.6308 -3.6983,24.83713 -0.8707,5.05581 -2.3066,13.61407 -3.1909,19.01835 -4.7219,28.85852 -9.4465,44.18257 -17.1963,55.77488 -6.2837,9.39927 -15.4869,15.32 -27.4812,17.67975 -4.7616,0.93678 -8.0037,-1.34626 -14.5891,-10.27324 -3.7201,-5.043 -4.8769,-7.17671 -11.78785,-21.74211 -3.04473,-6.417 -5.72672,-11.86259 -5.96003,-12.10131 -0.82717,-0.84646 -2.48413,-0.90823 -3.47412,-0.12951 -1.86386,1.46611 -1.81528,1.62937 4.29826,14.44258 l 5.67948,11.9035 -1.41012,5.84707 c -2.03713,8.44723 -2.58313,10.96533 -5.86714,27.06027 -4.63526,22.71703 -6.29138,29.80614 -9.41587,40.30509 -6.76125,22.71921 -16.46541,40.00265 -34.00311,60.56089 -4.76554,5.58632 -21.32941,22.0782 -28.52373,28.39974 -46.21667,40.61002 -99.46457,74.45136 -155.56349,98.86729 -22.94159,9.98488 -43.2242,15.74281 -84.49791,23.98768 -7.2913,1.4565 -14.13256,2.78268 -15.2028,2.94708 -2.96685,0.45569 -24.71031,4.81635 -32.88181,6.59444 -10.88941,2.36952 -19.91238,4.78556 -27.76679,7.43502 l -7.05822,2.3809 -6.18719,0.0797 c -3.40295,0.0438 -6.66448,0.0106 -7.24784,-0.0741 z"
       style="opacity:1;fill:#296bcc;fill-opacity:1;stroke:#296bcc;stroke-width:1.87077069;stroke-linecap:round;stroke-linejoin:round;stroke-miterlimit:4;stroke-dasharray:none;stroke-opacity:1;paint-order:normal" />
    <path
       transform="scale(0.26458333)"
       id="path6684"
       d="m 583.13983,557.2105 c -3.54439,-0.51389 -7.52368,-1.42803 -10.60661,-2.43665 -1.94454,-0.63615 -5.76292,-1.81384 -8.48528,-2.61704 -5.87038,-1.73202 -11.35948,-3.67886 -13.73614,-4.87182 -1.8469,-0.92702 -8.32829,-5.45675 -9.22388,-6.44634 -1.44566,-1.59746 -1.55865,-6.06638 -0.48273,-19.09302 0.93465,-11.31629 1.12932,-32.66999 0.35474,-38.9129 -1.43875,-11.5959 -4.42212,-24.71394 -6.82718,-30.01944 -0.56484,-1.24603 -0.97648,-2.31601 -0.91475,-2.37774 0.0617,-0.0617 1.13705,0.0692 2.38961,0.29093 3.70972,0.65673 17.03488,0.55531 22.96025,-0.17476 24.70861,-3.04436 51.4057,-9.35298 73.18556,-17.29402 7.68456,-2.80182 14.83105,-5.85016 15.82151,-6.74868 0.92882,-0.84259 1.05589,-2.54416 0.27341,-3.6613 -0.98089,-1.40042 -2.05791,-1.32156 -6.12174,0.44824 -23.38608,10.18468 -57.79057,18.94582 -85.93654,21.88382 -8.54225,0.89168 -16.33805,0.64401 -24.24533,-0.77027 -2.78227,-0.49763 -3.3757,-0.74198 -4.98456,-2.05242 -1.00446,-0.81814 -3.64026,-2.57332 -5.85734,-3.9004 -5.20256,-3.1141 -8.68461,-6.54915 -10.88225,-10.73536 -1.46554,-2.79165 -1.53834,-3.06777 -1.36807,-5.18899 0.4264,-5.31202 5.21777,-12.12407 11.42618,-16.24498 2.29456,-1.52304 6.31461,-3.33368 7.43363,-3.34813 0.40757,-0.005 3.43045,0.71156 6.71752,1.59293 7.6057,2.03934 14.67622,3.47398 22.06315,4.47673 5.01837,0.68122 7.43945,0.79351 17.32412,0.80348 22.94657,0.0232 34.36167,-1.4951 71.94811,-9.56931 19.41364,-4.17038 19.27841,-4.12474 19.34678,-6.52916 0.035,-1.23254 -1.33833,-2.80505 -2.44982,-2.80505 -0.31048,0 -4.79616,0.94624 -9.96817,2.10276 -29.06168,6.4985 -45.4147,9.44584 -57.94373,10.4433 -24.26881,1.93211 -37.82426,1.07582 -55.70679,-3.51894 -13.98639,-3.59369 -15.80223,-4.10845 -18.48731,-5.24088 -9.53715,-4.02226 -15.16745,-10.88191 -15.98872,-19.47975 -0.13732,-1.4376 -0.18783,-3.26226 -0.11225,-4.05481 0.13214,-1.38555 0.2117,-1.4688 2.06721,-2.16304 7.42911,-2.77958 13.7203,-3.89859 21.90845,-3.89683 9.63647,0.002 18.11782,1.08124 26.47113,3.36818 4.15107,1.13646 17.97104,6.52829 27.42348,10.6992 12.71678,5.61131 17.09445,6.82492 30.73605,8.52087 8.71888,1.08395 28.35202,2.51284 34.52675,2.51284 1.94397,0 2.4012,-0.12626 3.14276,-0.86782 1.0949,-1.0949 1.10482,-2.35274 0.0284,-3.60413 -0.83261,-0.96797 -0.88613,-0.97796 -6.62912,-1.23703 -18.14317,-0.81847 -33.58879,-2.36855 -42.38252,-4.2534 -4.18916,-0.89791 -9.10346,-2.65389 -16.617,-5.93758 -10.98682,-4.80165 -24.21825,-9.97468 -28.63783,-11.19639 -9.35874,-2.58705 -20.72049,-3.90328 -30.75787,-3.5632 -6.39537,0.21668 -11.1243,0.9878 -16.61556,2.7094 -1.83512,0.57534 -3.37912,1.00353 -3.43111,0.95153 -0.16291,-0.1629 1.16736,-4.54734 2.70808,-8.92563 1.99523,-5.66987 3.43602,-11.38631 3.73293,-14.81072 0.73581,-8.48621 -4.72687,-21.03703 -12.54241,-28.81692 -3.73887,-3.72181 -5.63234,-4.71 -10.8081,-5.64064 -11.686,-2.10126 -24.84502,-7.85462 -37.29132,-16.30445 -7.369,-5.00284 -14.00407,-10.81593 -16.05673,-14.06755 -0.91194,-1.44461 -0.93569,-1.59886 -0.54181,-3.51917 1.12472,-5.48333 9.22109,-22.71802 25.69078,-54.6878 20.93887,-40.64504 28.279,-55.35018 30.83943,-61.78345 l 0.8091,-2.03293 H 636.05515 780.2819 l 3.27549,1.39412 c 3.82086,1.62624 9.02548,3.55562 9.59152,3.55562 0.21634,0 1.24002,-1.11369 2.27484,-2.47487 l 1.8815,-2.47487 H 936.73762 1076.17 v 0.79549 c -0.01,1.49441 -2.1127,15.6308 -3.6983,24.83713 -0.8707,5.05581 -2.3066,13.61407 -3.1909,19.01835 -4.7219,28.85852 -9.4465,44.18257 -17.1963,55.77488 -6.2837,9.39927 -15.4869,15.32 -27.4812,17.67975 -4.7616,0.93678 -8.0037,-1.34626 -14.5891,-10.27324 -3.7201,-5.043 -4.8769,-7.17671 -11.78785,-21.74211 -3.04473,-6.417 -5.72672,-11.86259 -5.96003,-12.10131 -0.82717,-0.84646 -2.48413,-0.90823 -3.47412,-0.12951 -1.86386,1.46611 -1.81528,1.62937 4.29826,14.44258 l 5.67948,11.9035 -1.41012,5.84707 c -2.03713,8.44723 -2.58313,10.96533 -5.86714,27.06027 -4.63526,22.71703 -6.29138,29.80614 -9.41587,40.30509 -6.76125,22.71921 -16.46541,40.00265 -34.00311,60.56089 -4.76554,5.58632 -21.32941,22.0782 -28.52373,28.39974 -46.21667,40.61002 -99.46457,74.45136 -155.56349,98.86729 -22.94159,9.98488 -43.2242,15.74281 -84.49791,23.98768 -7.2913,1.4565 -14.13256,2.78268 -15.2028,2.94708 -2.96685,0.45569 -24.71031,4.81635 -32.88181,6.59444 -10.88941,2.36952 -19.91238,4.78556 -27.76679,7.43502 l -7.05822,2.3809 -6.18719,0.0797 c -3.40295,0.0438 -6.66448,0.0106 -7.24784,-0.0741 z"
       style="opacity:1;fill:#296bcc;fill-opacity:1;stroke:#296bcc;stroke-width:1.87077069;stroke-linecap:round;stroke-linejoin:round;stroke-miterlimit:4;stroke-dasharray:none;stroke-opacity:1;paint-order:normal" />
    <path
       transform="scale(0.26458333)"
       id="path1138"
       d="m 954.4614,827.62008 -4.89702,-0.0733 5.07987,-14.30735 c 2.79393,-7.86904 5.05384,-14.46225 5.02202,-14.65157 -0.0648,-0.38527 -4.71664,-2.09626 -4.96754,-1.82709 -0.0878,0.0942 -2.52743,6.86506 -5.42132,15.04631 -2.8939,8.18125 -5.3372,15.07188 -5.42956,15.3125 -0.15615,0.40683 -0.88666,0.4375 -10.41793,0.4375 -9.6593,0 -10.2403,-0.0252 -10.08181,-0.4375 1.39736,-3.63503 10.38812,-29.42907 10.3244,-29.62022 -0.11313,-0.33939 -4.76298,-1.9647 -4.97394,-1.73859 -0.0879,0.0942 -2.67541,7.28655 -5.75,15.98296 l -5.59015,15.81164 -5.75,-0.0324 c -3.1625,-0.0178 -7.89231,-0.10181 -10.51069,-0.18665 l -4.76069,-0.15426 5.19366,-14.625 c 2.85652,-8.04375 5.16758,-14.7799 5.13569,-14.96922 -0.0649,-0.38515 -4.71697,-2.09636 -4.96714,-1.82709 -0.0875,0.0942 -2.64259,7.18886 -5.67788,15.76587 -3.0353,8.577 -5.56178,15.63761 -5.61441,15.69024 -0.0526,0.0526 -4.8122,0.0663 -10.57682,0.0304 l -10.48114,-0.0652 5.05898,-14.25 c 2.78243,-7.8375 5.03422,-14.41248 5.00396,-14.61107 -0.0646,-0.42405 -4.66615,-2.13176 -4.94609,-1.83558 -0.10222,0.10816 -2.51558,6.7779 -5.36302,14.82165 -2.84743,8.04375 -5.29359,14.95138 -5.43591,15.35028 l -0.25875,0.72528 -11.27128,-0.18001 c -6.1992,-0.099 -11.30123,-0.20997 -11.33785,-0.24659 -0.0366,-0.0366 2.2988,-6.74273 5.18983,-14.90247 2.89103,-8.15974 5.22032,-14.94416 5.17621,-15.07648 -0.0882,-0.26472 -4.70529,-1.93492 -4.94288,-1.78807 -0.0813,0.0503 -2.67146,7.23965 -5.75583,15.97642 l -5.60795,15.88503 -10.64964,0.003 -10.64964,0.003 5.33714,-15.06023 c 2.93542,-8.28313 5.33714,-15.12984 5.33714,-15.21491 0,-0.15343 -5.04087,-2.03551 -5.12493,-1.91347 -0.0241,0.035 -2.38487,6.70111 -5.24618,14.81361 -2.8613,8.1125 -5.42559,15.35848 -5.69843,16.10217 l -0.49607,1.35217 -9.74876,-0.15456 c -5.36181,-0.085 -9.78445,-0.19026 -9.82808,-0.23389 -0.0436,-0.0436 2.27389,-6.7138 5.15004,-14.82261 2.87616,-8.1088 5.23231,-14.87326 5.23589,-15.03213 0.006,-0.25809 -3.44459,-1.66329 -4.60856,-1.87686 -0.39682,-0.0728 -1.22838,2.08522 -6.1088,15.85321 l -5.64946,15.9375 h -11.18833 c -6.15358,0 -11.18833,-0.0436 -11.18833,-0.0968 0,-0.18457 18.24014,-61.97655 18.30741,-62.01984 0.15967,-0.10277 209.76174,1.35247 209.86634,1.45707 0.0362,0.0362 -3.55907,13.92447 -7.98959,30.86274 l -8.05547,30.79684 -6.25185,-0.0569 c -3.43851,-0.0313 -8.4555,-0.0899 -11.14886,-0.13015 z"
       style="opacity:1;fill:#ffcd00;fill-opacity:1;stroke:#ffcc00;stroke-width:1.32283461;stroke-linecap:butt;stroke-linejoin:round;stroke-miterlimit:4;stroke-dasharray:none;stroke-opacity:1;paint-order:normal" />
    <path
       id="path1142"
       d="m 149.05977,32.076777 c 0.009,-0.03032 0.0433,-0.166813 0.0767,-0.303295 0.16385,-0.670931 0.37888,-1.355017 0.37888,-1.205312 0,0.05114 0.31829,0.190165 0.4845,0.211613 0.10267,0.01323 0.20734,0.0055 0.33154,-0.02472 0.0999,-0.02424 0.1855,-0.04027 0.19041,-0.03562 0.004,0.0047 -0.32564,0.324366 -0.73454,0.710473 -0.40891,0.386107 -0.73625,0.677199 -0.72743,0.646868 z"
       style="opacity:1;fill:#0087cc;fill-opacity:1;stroke:#0087cc;stroke-width:0.11559126;stroke-linecap:butt;stroke-linejoin:round;stroke-miterlimit:4;stroke-dasharray:none;stroke-opacity:1;paint-order:normal" />
    <path
       transform="scale(0.26458333)"
       id="path1144"
       d="m 597.61709,145.14007 c -8.44549,-0.8487 -15.04936,-2.21989 -22.214,-4.61239 -7.05316,-2.35529 -11.27549,-4.7749 -12.47975,-7.15155 -0.22443,-0.44292 -0.23079,-0.48879 -0.21868,-1.5789 0.0118,-1.06616 0.23713,-3.61587 0.44005,-4.98021 l 0.0937,-0.63032 1.37086,-1.44454 c 5.6052,-5.90646 12.75535,-12.61398 18.06753,-16.94904 2.27485,-1.85643 5.61988,-4.38928 5.69608,-4.31308 0.0176,0.0175 -0.0424,0.62206 -0.1332,1.34336 -1.32576,10.52937 0.1147,20.62564 4.28319,30.02124 1.34574,3.03324 3.39121,6.66248 5.34234,9.47885 0.34537,0.49851 0.58419,0.9016 0.53071,0.89574 -0.0535,-0.006 -0.40397,-0.0415 -0.77888,-0.0792 z"
       style="opacity:1;fill:#ffffff;fill-opacity:1;stroke:#000000;stroke-width:0.32734695;stroke-linecap:butt;stroke-linejoin:round;stroke-miterlimit:4;stroke-dasharray:none;stroke-opacity:1;paint-order:normal" />
    <path
       transform="scale(0.26458333)"
       id="path1146"
       d="m 660.9711,138.93127 c 0,-0.0177 0.73292,-1.48574 1.6287,-3.26232 2.56927,-5.09561 4.08802,-8.44908 5.33091,-11.77092 2.01897,-5.39603 2.91571,-9.6793 3.0389,-14.51529 0.0865,-3.39545 -0.27158,-6.72657 -1.13786,-10.585102 -0.14367,-0.639902 -0.25214,-1.173703 -0.24105,-1.186225 0.0111,-0.01252 0.93506,0.961847 2.05327,2.165264 6.32846,6.810683 9.92409,9.902953 15.10981,12.994543 4.71389,2.8103 10.54203,5.71683 15.63899,7.79927 0.61697,0.25207 1.12989,0.46545 1.13983,0.47417 0.0245,0.0215 -1.9586,1.2857 -3.62685,2.31201 -4.85255,2.98529 -10.46471,5.90538 -15.63801,8.13665 -5.95987,2.57053 -11.62797,4.4702 -18.84582,6.31617 -1.49964,0.38354 -3.11457,0.80008 -3.58872,0.92564 -0.47415,0.12556 -0.8621,0.21383 -0.8621,0.19614 z"
       style="opacity:1;fill:#ffffff;fill-opacity:1;stroke:#000000;stroke-width:0.32734695;stroke-linecap:butt;stroke-linejoin:round;stroke-miterlimit:4;stroke-dasharray:none;stroke-opacity:1;paint-order:normal" />
    <path
       id="path898"
       d="m 303.53881,116.73589 c 0,-0.0686 0.7111,-1.17624 1.58023,-2.46132 8.39767,-12.41673 14.69018,-38.157721 20.15283,-82.43986 1.37061,-11.110635 5.76578,-51.971956 5.76578,-53.60366 0,-0.72445 -0.15951,-0.90157 -0.81192,-0.90157 -0.56008,0 -0.87013,0.23694 -0.99956,0.763857 -0.4794,1.951588 -2.70369,16.2558281 -3.78774,24.3585471 -1.8686,13.9669039 -3.85843,27.8470009 -4.79391,33.4399569 -2.38027,14.231046 -5.65344,26.933297 -9.36055,36.32564 -1.49159,3.779097 -5.38829,11.772818 -6.35709,13.040987 l -0.62587,0.81928 -2.86631,-2.856233 c -2.38328,-2.374897 -11.13608,-13.704496 -11.13608,-14.414508 0,-0.117591 1.20791,-1.715487 2.68424,-3.55088 4.42794,-5.504847 7.04181,-9.600882 10.37524,-16.258405 6.07281,-12.1286 9.20062,-22.582354 14.9933,-50.110503 1.21802,-5.7883371 2.73746,-12.787119 3.37652,-15.552848 0.63906,-2.76573 1.16193,-5.29675 1.16193,-5.624492 0,-0.428839 -0.54726,-0.765802 -1.95208,-1.201965 -4.21314,-1.308073 -8.12888,-4.401391 -10.03056,-7.923852 l -0.94915,-1.758096 0.7794,-0.160792 c 0.42867,-0.08844 2.30712,-0.330576 4.17432,-0.538089 2.57742,-0.286443 17.26715,-2.4815 18.94146,-2.830385 0.14817,-0.03088 0.73296,1.013261 1.29953,2.320306 1.04389,2.408176 4.03269,10.868207 4.03269,11.414831 0,0.163703 -0.42012,0.299982 -0.9336,0.302842 -1.95635,0.0109 -1.91228,-0.265181 -1.6608,10.403107 0.12694,5.3853053 0.60644,21.1729317 1.06556,35.083615 1.21037,36.672387 1.5244,49.383163 1.52675,61.796752 l 0.002,11.042705 -2.97056,1.463611 c -3.93236,1.937526 -4.93884,2.581233 -14.68297,9.390631 -8.92021,6.23362 -12.38333,8.42567 -15.17033,9.60232 -1.59685,0.67421 -2.82275,0.94279 -2.82275,0.61847 z"
       style="opacity:1;fill:#82f087;fill-opacity:1;stroke:#82f087;stroke-width:1.38576877;stroke-linecap:butt;stroke-linejoin:round;stroke-miterlimit:4;stroke-dasharray:none;stroke-opacity:1;paint-order:normal" />
    <path
       transform="matrix(0.26458333,0,0,0.26458333,113.42117,-153.56891)"
       id="path900"
       d="m 741.25213,384.7066 c 3.14087,-12.04581 8.20737,-20.94197 16.89249,-29.66114 l 8.15334,-8.18532 10.23006,10.10179 c 11.06153,10.92283 27.36014,29.7704 26.49359,30.63695 -0.58314,0.58313 -52.17353,4.48566 -59.29928,4.48566 h -4.39395 z"
       style="opacity:1;fill:#82f087;fill-opacity:1;stroke:#82f087;stroke-width:5.23755121;stroke-linecap:butt;stroke-linejoin:round;stroke-miterlimit:4;stroke-dasharray:none;stroke-opacity:1;paint-order:normal" />
    <path
       transform="matrix(0.26458333,0,0,0.26458333,113.42117,-153.56891)"
       id="path902"
       d="m 741.1829,442.44587 c -0.36933,-1.94012 -1.0478,-12.50443 -1.50771,-23.47626 l -0.83622,-19.94878 33.80478,-2.22224 c 18.59262,-1.22223 34.49155,-2.20549 35.33096,-2.18503 1.6741,0.0408 13.23898,18.14128 19.44135,30.4281 l 3.92153,7.76852 -24.63417,3.95623 c -13.54879,2.17593 -31.56301,4.8442 -40.0316,5.92949 -8.46859,1.08529 -17.51692,2.2667 -20.10742,2.62535 -4.32911,0.59936 -4.76429,0.36684 -5.3815,-2.87538 z"
       style="opacity:1;fill:#ffcc00;fill-opacity:1;stroke:#ffcc00;stroke-width:5.23755121;stroke-linecap:butt;stroke-linejoin:round;stroke-miterlimit:4;stroke-dasharray:none;stroke-opacity:1;paint-order:normal" />
    <path
       transform="matrix(0.26458333,0,0,0.26458333,113.42117,-153.56891)"
       id="path906"
       d="m 493.88269,386.30575 c -7.98426,-1.39875 -17.30067,-3.07728 -20.70313,-3.7301 l -6.18629,-1.18693 0.52613,-4.14143 c 1.39517,-10.98205 2.39039,-34.8331 2.92857,-70.18453 0.32508,-21.35321 0.90813,-39.01999 1.29567,-39.2595 0.38754,-0.23952 8.52473,-0.69705 18.08264,-1.01675 14.43318,-0.48276 17.51538,-0.36428 18.18857,0.69916 0.4458,0.70423 0.82176,10.671 0.83547,22.14838 0.0267,22.33663 1.37563,73.55015 2.35992,89.5961 0.56223,9.16554 0.49555,9.74943 -1.10621,9.68613 -0.93748,-0.037 -8.23708,-1.21179 -16.22134,-2.61053 z"
       style="opacity:1;fill:#82f187;fill-opacity:1;stroke:#82f087;stroke-width:3.7035079;stroke-linecap:butt;stroke-linejoin:round;stroke-miterlimit:4;stroke-dasharray:none;stroke-opacity:1;paint-order:normal" />
  </g>
  <g
     transform="translate(-113.42117,84.687358)"
     style="display:inline;opacity:1"
     id="layer3">
    <ellipse
       ry="48.830143"
       rx="42.656219"
       cy="39.753078"
       cx="185.77905"
       id="path4721"
       style="opacity:1;fill:none;stroke-width:1.39999998;stroke-linecap:round;stroke-linejoin:round;stroke-miterlimit:4;stroke-dasharray:none;paint-order:normal" />
    <path
       id="path4731"
       d="m 264.91756,67.348658 c -2.35922,8.899875 -3.05229,18.6819 -7.48355,26.847224 -3.88406,7.157018 -9.9231,13.083488 -16.15557,18.324198 -12.10524,10.17895 -25.86689,18.67779 -40.44753,24.80583 -13.20565,5.55016 -32.68418,6.98716 -41.68403,10.44909 -1.8632,0.7791 -5.77362,0.62209 -8.59896,-0.52917 -4.20763,-1.16924 -7.89215,-2.43359 -8.26823,-4.29948 -0.84161,-2.60371 1.56424,-10.69141 -0.66146,-19.47994 -1.58516,-8.42562 -4.99379,-5.01327 -7.63984,-10.41797 -1.04161,-1.86152 1.49481,-6.26818 5.6224,-7.24298 0,0 -8.45666,-1.27027 -6.78956,-9.268216 0.45662,-2.575284 2.35311,-5.817419 1.76247,-8.260421 -0.42995,-2.563116 -2.97657,-6.49378 -4.8948,-6.746875 -7.40136,-0.999938 -15.85403,-7.766432 -15.54427,-9.392709 l 0.13229,-0.694531 c 0.71384,-3.747712 13.93412,-27.366076 15.37892,-31.882292 1.41161,-3.144474 5.86312,-30.1214625 13.90436,-51.225948 2.44165,-6.408174 8.38736,-23.138993 15.82692,-32.690082 7.82705,-10.048564 17.78655,-19.054194 29.2708,-24.563137 21.98242,-10.54487 47.57061,-17.500599 71.73651,-14.271025 25.11111,3.355893 49.04051,7.395415 68.03234,33.883141 C 366.27389,3.4923523 338.1375,163.65 338.1375,163.65 l -64.02917,-6.61458 -16.40417,62.70625 -57.67916,-0.26458 28.67519,-97.27978"
       style="fill:none;stroke:#000000;stroke-width:1.39999998;stroke-linecap:round;stroke-linejoin:round;stroke-miterlimit:4;stroke-dasharray:none;stroke-opacity:1" />
    <path
       id="path4739"
       d="m 143.27187,-10.975 c 5.41752,6.8992538 40.94404,4.6930253 56.60783,7.441382 7.83189,1.3741784 28.04848,4.06391471 31.21019,4.5453663 4.64176,0.7068283 6.85117,10.9257687 6.69917,18.1966457 -0.152,7.270878 -1.51215,11.842228 -2.25786,13.646649 1.8287,-1.401553 16.4601,2.4357 18.02072,1.098288 0.53499,-2.174458 9.94901,-15.221218 17.89035,-18.404847 2.44368,-0.979657 5.52774,-0.864289 7.89281,0.292326 2.23282,1.091939 3.82755,3.421695 4.793,5.712051 2.0518,4.867551 1.6668,10.48668 1.57759,15.768251 -0.0745,4.407376 -1.40321,10.698959 -1.76012,13.106355 -2.02511,13.659703 -4.62899,20.521097 -13.02008,21.991746 -2.18821,0.383513 -3.98172,-2.696116 -5.14332,-4.238449 l -0.88494,-1.656203 -2.86932,-6.021829"
       style="fill:none;fill-opacity:1;stroke:#000000;stroke-width:1.39999998;stroke-linecap:round;stroke-linejoin:round;stroke-miterlimit:4;stroke-dasharray:none;stroke-opacity:1" />
    <path
       id="path4747"
       d="m 139.87179,105.87659 c 0.98523,0.28935 3.42483,0.96174 5.1727,1.27416 1.75759,0.31413 3.5385,0.52683 5.32224,0.59972 1.91562,0.0782 3.8351,-0.0619 5.74897,-0.17547 1.17608,-0.0698 2.35313,-0.15367 3.52081,-0.31093 2.60756,-0.35118 5.18655,-0.89419 7.76671,-1.41061 2.60905,-0.52219 7.92468,-1.70374 7.79815,-1.70624"
       style="opacity:1;fill:none;fill-opacity:1;stroke:#000000;stroke-width:1.39785671;stroke-linecap:round;stroke-linejoin:round;stroke-miterlimit:4;stroke-dasharray:none;stroke-opacity:1;paint-order:normal" />
    <path
       id="path4753"
       d="m 139.65699,118.14323 c 2.50807,0.54611 4.6582,0.65675 6.9783,0.43551 8.29764,-0.79123 18.4834,-3.55053 24.21313,-6.24627"
       style="opacity:1;fill:none;stroke:#000000;stroke-width:1.39999998;stroke-linecap:round;stroke-linejoin:round;stroke-miterlimit:4;stroke-dasharray:none;stroke-opacity:1;paint-order:normal" />
    <path
       id="path4755"
       d="m 132.73941,97.282845 c 1.23056,-0.500233 2.92316,-1.069944 4.45279,-1.288443 1.79827,-0.256873 3.64045,-0.175545 5.44955,-0.01148 1.47407,0.133683 2.94075,0.409536 4.36622,0.808017 1.71702,0.479985 3.33795,1.254044 5.00157,1.89507 2.18355,0.841364 4.26096,2.014761 6.5364,2.560781 4.23856,1.01708 13.01437,1.27454 13.01437,1.27454"
       style="opacity:1;fill:none;stroke:#000000;stroke-width:1.39999998;stroke-linecap:round;stroke-linejoin:round;stroke-miterlimit:4;stroke-dasharray:none;stroke-opacity:1;paint-order:normal" />
    <path
       id="path948"
       d="m 175.39563,143.86792 c 12.02816,19.96503 25.2918,46.13866 26.88597,67.26503"
       style="opacity:1;fill:none;fill-opacity:1;stroke:#000006;stroke-width:1.39999998;stroke-linecap:round;stroke-linejoin:round;stroke-miterlimit:4;stroke-dasharray:none;stroke-opacity:1;paint-order:normal" />
    <path
       id="path1069"
       d="m 207.42848,219.54529 3.18051,-8.98026"
       style="opacity:1;fill:none;fill-opacity:1;stroke:#000000;stroke-width:1.39999998;stroke-linecap:butt;stroke-linejoin:round;stroke-miterlimit:4;stroke-dasharray:none;stroke-opacity:1;paint-order:normal" />
    <path
       id="path1069-6"
       d="m 214.22513,219.5453 3.18051,-8.98026"
       style="display:inline;opacity:1;fill:none;fill-opacity:1;stroke:#000000;stroke-width:1.39999998;stroke-linecap:butt;stroke-linejoin:round;stroke-miterlimit:4;stroke-dasharray:none;stroke-opacity:1;paint-order:normal" />
    <path
       id="path1069-6-1"
       d="m 221.37989,219.60009 3.18051,-8.98026"
       style="display:inline;opacity:1;fill:none;fill-opacity:1;stroke:#000000;stroke-width:1.39999998;stroke-linecap:butt;stroke-linejoin:round;stroke-miterlimit:4;stroke-dasharray:none;stroke-opacity:1;paint-order:normal" />
    <path
       id="path1069-6-1-0"
       d="m 228.86343,219.91947 3.18051,-8.98026"
       style="display:inline;opacity:1;fill:none;fill-opacity:1;stroke:#000000;stroke-width:1.39999998;stroke-linecap:butt;stroke-linejoin:round;stroke-miterlimit:4;stroke-dasharray:none;stroke-opacity:1;paint-order:normal" />
    <path
       id="path1069-6-1-4"
       d="m 236.07173,219.73388 3.18051,-8.98026"
       style="display:inline;opacity:1;fill:none;fill-opacity:1;stroke:#000000;stroke-width:1.39999998;stroke-linecap:butt;stroke-linejoin:round;stroke-miterlimit:4;stroke-dasharray:none;stroke-opacity:1;paint-order:normal" />
    <path
       id="path1069-6-1-2"
       d="m 243.21547,219.73388 3.18051,-8.98026"
       style="display:inline;opacity:1;fill:none;fill-opacity:1;stroke:#000000;stroke-width:1.39999998;stroke-linecap:butt;stroke-linejoin:round;stroke-miterlimit:4;stroke-dasharray:none;stroke-opacity:1;paint-order:normal" />
    <path
       id="path1069-6-1-22"
       d="m 250.09464,219.99846 3.18051,-8.98026"
       style="display:inline;opacity:1;fill:none;fill-opacity:1;stroke:#000000;stroke-width:1.39999998;stroke-linecap:butt;stroke-linejoin:round;stroke-miterlimit:4;stroke-dasharray:none;stroke-opacity:1;paint-order:normal" />
    <g
       id="flowRoot1000"
       style="font-style:normal;font-variant:normal;font-weight:normal;font-stretch:normal;font-size:106.66666412px;line-height:1.25;font-family:'Ifao N Copte';-inkscape-font-specification:'Ifao N Copte';letter-spacing:0px;word-spacing:0px;fill:#000000;fill-opacity:1;stroke:none"
       transform="matrix(0.3642058,0,0,0.32399034,19.419648,-182.69063)"
       aria-label="H ">
      <path
         id="path1157"
         style="font-style:normal;font-variant:normal;font-weight:normal;font-stretch:normal;font-size:192px;font-family:Ani;-inkscape-font-specification:Ani"
         d="m 942.48047,391.69548 v 131.53125 l -14.25,-7.3125 V 392.82048 l -7.125,-0.9375 -9.9375,-18.09375 h 42.65625 l 9,17.90625 z m 53.15625,64.5 -0.75,-63.9375 -6.375,-0.375 -6.09375,-19.21875 h 41.43753 l 10.5937,19.59375 -25.5937,-0.1875 0.1875,129.375 -15.09378,-6.84375 0.375,-39.5625 -51.84375,-18.84375 v -22.5 z" />
    </g>
    <flowRoot
       style="font-style:normal;font-variant:normal;font-weight:normal;font-stretch:normal;font-size:40px;line-height:1.25;font-family:'Ifao N Copte';-inkscape-font-specification:'Ifao N Copte';letter-spacing:0px;word-spacing:0px;fill:#000000;fill-opacity:1;stroke:none"
       id="flowRoot1014"
       xml:space="preserve"><flowRegion
         id="flowRegion1016"><rect
           y="430.71399"
           x="880.21979"
           height="428.56183"
           width="110.34825"
           id="rect1018" /></flowRegion><flowPara
         id="flowPara1020" /></flowRoot>    <flowRoot
       style="font-style:normal;font-variant:normal;font-weight:normal;font-stretch:normal;font-size:40px;line-height:1.25;font-family:'Ifao N Copte';-inkscape-font-specification:'Ifao N Copte';letter-spacing:0px;word-spacing:0px;fill:#000000;fill-opacity:1;stroke:none"
       id="flowRoot1022"
       xml:space="preserve"><flowRegion
         id="flowRegion1024"><rect
           y="346.02814"
           x="875.08734"
           height="538.9101"
           width="125.74568"
           id="rect1026" /></flowRegion><flowPara
         id="flowPara1028" /></flowRoot>    <g
       id="flowRoot1000-2"
       style="font-style:normal;font-variant:normal;font-weight:normal;font-stretch:normal;font-size:106.66666412px;line-height:1.25;font-family:'Ifao N Copte';-inkscape-font-specification:'Ifao N Copte';letter-spacing:0px;word-spacing:0px;display:inline;opacity:1;fill:#000000;fill-opacity:1;stroke:none"
       transform="matrix(0.36420581,0,0,0.32399033,23.759625,-110.19817)"
       aria-label="A ">
      <path
         id="path1154"
         style="font-style:normal;font-variant:normal;font-weight:normal;font-stretch:normal;font-size:192px;font-family:Ani;-inkscape-font-specification:Ani"
         d="m 977.44922,448.69548 -32.25,0.0937 -15.1875,70.96875 h -18.46875 l 28.96875,-122.34375 h -28.3125 l -18.46875,-12.375 107.81253,-0.1875 10.5937,12.65625 -36.09373,-0.375 43.03123,122.4375 h -19.21873 z m -8.25,-13.875 -11.15625,-38.25 -10.03125,38.0625 z" />
    </g>
    <g
       id="flowRoot1000-2-8"
       style="font-style:normal;font-variant:normal;font-weight:normal;font-stretch:normal;font-size:106.66666412px;line-height:1.25;font-family:'Ifao N Copte';-inkscape-font-specification:'Ifao N Copte';letter-spacing:0px;word-spacing:0px;display:inline;opacity:1;fill:#000000;fill-opacity:1;stroke:none"
       transform="matrix(0.33832474,0,0,0.32399033,47.335079,-29.538997)"
       aria-label="P ">
      <path
         id="path1151"
         style="font-style:normal;font-variant:normal;font-weight:normal;font-stretch:normal;font-size:192px;font-family:Ani;-inkscape-font-specification:Ani"
         d="m 918.76172,390.94548 17.8125,-2.34375 -0.9375,1.875 1.875,124.6875 18.75,0.9375 -0.9375,-58.125 q 40.3125,12.1875 61.87498,-23.4375 12.1875,-29.0625 -16.875,-45 h -13.12498 l 11.25,16.875 q 0.9375,24.375 -17.8125,35.625 h -21.5625 v -0.9375 l -2.8125,-51.5625 91.68748,-0.46875 -19.125,-17.34375 H 899.54297 Z" />
    </g>
    <g
       id="flowRoot1000-2-8-9"
       style="font-style:normal;font-variant:normal;font-weight:normal;font-stretch:normal;font-size:106.66666412px;line-height:1.25;font-family:'Ifao N Copte';-inkscape-font-specification:'Ifao N Copte';letter-spacing:0px;word-spacing:0px;display:inline;opacity:1;fill:#000000;fill-opacity:1;stroke:none"
       transform="matrix(0.36420581,0,0,0.32399033,31.6763,46.837784)"
       aria-label="I ">
      <path
         id="path1148"
         style="font-style:normal;font-variant:normal;font-weight:normal;font-stretch:normal;font-size:192px;font-family:Ani;-inkscape-font-specification:Ani"
         d="m 932.63672,509.72673 0.1875,-122.90625 -14.53125,-0.1875 -8.0625,-14.15625 h 51.1875 l 6.75,14.15625 -20.71875,0.1875 v 130.59375 z" />
    </g>
  </g>
  <g
     transform="translate(-113.42117,84.687358)"
     style="display:inline"
     id="layer7">
    <path
       id="path933"
       d="m 327.55416,-50.133334 c -51.29238,3.944079 -101.16182,5.647043 -132.84742,-21.289557"
       style="opacity:1;fill:none;fill-opacity:1;stroke:#000006;stroke-width:1.39999998;stroke-linecap:round;stroke-linejoin:round;stroke-miterlimit:4;stroke-dasharray:none;stroke-opacity:1;paint-order:normal" />
    <path
       id="path935"
       d="m 334.70162,-38.449985 c -56.16134,10.36338 -110.4648,6.792614 -161.6446,-20.205575"
       style="opacity:1;fill:none;fill-opacity:1;stroke:#000006;stroke-width:1.39999998;stroke-linecap:round;stroke-linejoin:round;stroke-miterlimit:4;stroke-dasharray:none;stroke-opacity:1;paint-order:normal" />
    <path
       id="path1065"
       d="m 205.23627,201.58478 56.87496,0.37418"
       style="opacity:1;fill:none;fill-opacity:1;stroke:#000000;stroke-width:1.39999998;stroke-linecap:butt;stroke-linejoin:round;stroke-miterlimit:4;stroke-dasharray:none;stroke-opacity:1;paint-order:normal" />
  </g>
  <g
     transform="translate(-113.42117,84.687358)"
     id="layer6">
    <path
       id="path930"
       d="m 142.27148,142.54688 c -0.41374,0.003 -0.73477,0.36196 -0.6914,0.77343 0,0 0.37821,4.1268 0.55664,9.23633 0.17842,5.10953 0.14278,11.22068 -0.63477,15.02539 -2.70483,13.23506 -9.46272,25.55876 -16.5625,37.19336 -2.03174,3.32947 -7.58984,9.43359 -7.58984,9.43359 -0.43142,0.47399 -0.0519,1.23042 0.58594,1.16797 0,0 2.27388,-0.22885 5.01953,-0.74609 2.74565,-0.51724 5.95116,-1.28956 7.99609,-2.5332 12.24444,-7.44658 21.18573,-19.77576 28.30469,-32.05078 3.17586,-5.47606 6.09503,-14.1842 8.25195,-21.56055 2.15692,-7.37635 3.53516,-13.41016 3.53516,-13.41016 0.20833,-0.91016 -19.67774,3.67213 -19.4892,6.16979 0,0 9.87541,-1.54368 7.73112,5.78946 -2.14428,7.33314 -11.16702,14.68955 -14.20455,19.92708 -7.06744,12.18619 -9.81918,17.03589 -18.95677,27.58984 -1.68982,1.02769 -0.21545,4.22763 -1.17734,6.7172 -1.13538,1.10732 9.88377,-6.00769 5.68828,-4.04481 1.52359,-1.69811 -2.41903,-1.75406 -0.66328,-4.63124 7.1227,-11.67216 18.07715,-18.17389 20.83932,-31.68945 0.83342,-4.07813 12.08681,0.91133 11.9069,-4.24102 -0.17992,-5.15234 -1.48854,-18.0457 -1.48854,-18.0457 -9.4208,2.54442 -18.59036,-6.0721 -18.95743,-6.07044 z"
       style="color:#000000;font-style:normal;font-variant:normal;font-weight:normal;font-stretch:normal;font-size:medium;line-height:normal;font-family:sans-serif;font-variant-ligatures:normal;font-variant-position:normal;font-variant-caps:normal;font-variant-numeric:normal;font-variant-alternates:normal;font-feature-settings:normal;text-indent:0;text-align:start;text-decoration:none;text-decoration-line:none;text-decoration-style:solid;text-decoration-color:#000000;letter-spacing:normal;word-spacing:normal;text-transform:none;writing-mode:lr-tb;direction:ltr;text-orientation:mixed;dominant-baseline:auto;baseline-shift:baseline;text-anchor:start;white-space:normal;shape-padding:0;clip-rule:nonzero;display:inline;overflow:visible;visibility:visible;opacity:1;isolation:auto;mix-blend-mode:normal;color-interpolation:sRGB;color-interpolation-filters:linearRGB;solid-color:#000000;solid-opacity:1;vector-effect:none;fill:#000006;fill-opacity:1;fill-rule:nonzero;stroke:none;stroke-width:1.39999998;stroke-linecap:round;stroke-linejoin:round;stroke-miterlimit:4;stroke-dasharray:none;stroke-dashoffset:0;stroke-opacity:1;paint-order:normal;color-rendering:auto;image-rendering:auto;shape-rendering:auto;text-rendering:auto;enable-background:accumulate" />
  </g>
  <g
     transform="translate(-113.42117,84.687358)"
     style="display:inline"
     id="layer4">
    <path
       id="path4771"
       d="m 151.32552,4.3353699 c -2.44227,0.9633473 -4.46103,5.5896384 -4.93068,10.9660131 -0.20558,2.353157 11.17364,-5.4018937 16.35366,-6.7952147 8.98632,-2.417139 18.51339,-4.3432115 27.56322,-2.9035716 4.94617,0.7868332 10.29352,5.8835453 16.46777,9.0305463 6.17424,3.147001 13.01336,4.128279 13.01336,4.128279 0.95794,0.181815 1.07522,-1.566576 0.10508,-1.664272 0,0 0.66789,-0.566597 -1.46098,-1.587718 -2.12885,-1.02112 -5.92505,-1.569661 -8.87761,-3.074584 -2.95259,-1.50492 -8.26073,-7.3640695 -11.8374,-10.3532195 -3.57667,-2.98915017 -6.45569,-3.755467 -9.29505,-4.2071505 -12.8908,1.0746342 -25.66133,1.94843153 -37.10137,6.4608919 z"
       style="color:#000000;font-style:normal;font-variant:normal;font-weight:normal;font-stretch:normal;font-size:medium;line-height:normal;font-family:sans-serif;font-variant-ligatures:normal;font-variant-position:normal;font-variant-caps:normal;font-variant-numeric:normal;font-variant-alternates:normal;font-feature-settings:normal;text-indent:0;text-align:start;text-decoration:none;text-decoration-line:none;text-decoration-style:solid;text-decoration-color:#000000;letter-spacing:normal;word-spacing:normal;text-transform:none;writing-mode:lr-tb;direction:ltr;text-orientation:mixed;dominant-baseline:auto;baseline-shift:baseline;text-anchor:start;white-space:normal;shape-padding:0;clip-rule:nonzero;display:inline;overflow:visible;visibility:visible;opacity:1;isolation:auto;mix-blend-mode:normal;color-interpolation:sRGB;color-interpolation-filters:linearRGB;solid-color:#000000;solid-opacity:1;vector-effect:none;fill:#000000;fill-opacity:1;fill-rule:nonzero;stroke:none;stroke-width:1.39999998;stroke-linecap:round;stroke-linejoin:round;stroke-miterlimit:4;stroke-dasharray:none;stroke-dashoffset:0;stroke-opacity:1;paint-order:normal;color-rendering:auto;image-rendering:auto;shape-rendering:auto;text-rendering:auto;enable-background:accumulate" />
  </g>
  <g
     transform="translate(-113.42117,84.687358)"
     style="display:inline"
     id="layer5">
    <path
       id="path4759"
       d="m 161.36523,17.556641 c -2.20999,0.140618 -4.6957,0.641819 -6.49609,2.214843 -4.27037,3.731046 -6.74438,10.272363 -7.39648,14.929688 -0.0748,0.53402 0.0785,1.048431 0.33789,1.453125 0.25943,0.404694 0.61311,0.723307 0.99609,0.994141 0.76595,0.541666 1.67383,0.905602 2.37695,1.160156 4.93336,1.786025 9.33483,1.740442 13.92579,1.570312 3.83702,-0.14219 7.8873,-1.169131 11.71484,-2.15625 3.82754,-0.987119 7.44125,-1.928614 10.2793,-1.972656 8.46831,-0.131415 9.18375,0.854453 13.59859,2.097347 3.19335,0.899012 4.68811,2.340308 9.18294,3.837317 2.77679,-3.163427 1.61634,-4.310414 3.434,-6.636919 -7.39494,-1.462375 -18.81331,-3.057058 -27.16674,-6.893401 -4.11379,-1.889274 -7.23805,-6.088523 -11.88086,-8.029297 -4.01366,-1.677782 -8.4805,-2.849961 -12.90625,-2.568359 z m 1.75094,2.118247 c 3.26309,-0.172397 6.63715,0.75817 9.53855,2.261297 3.43193,1.77798 5.40304,5.644951 8.6928,7.673937 3.2429,2.000081 6.90694,3.348899 10.60606,4.261709 2.92129,0.720868 7.30101,1.202208 8.98002,0.917231 -4.61301,-0.266246 -11.4805,-4.901895 -14.8825,-2.684517 -2.6158,1.704942 -5.75456,3.276971 -9.57648,4.262643 -3.82192,0.985671 -7.7959,1.979056 -11.41797,2.113281 -4.56714,0.169246 -8.71986,0.204797 -13.39648,-1.488281 -0.65359,-0.236618 -1.47241,-0.58341 -2.04493,-0.988282 -0.28625,-0.202436 -0.50481,-0.41603 -0.625,-0.603515 -0.12018,-0.187486 -0.15612,-0.325411 -0.13085,-0.50586 0.23361,-4.200609 2.13939,-9.10421 5.38312,-12.097279 2.3045,-2.126413 5.74237,-2.95693 8.87366,-3.122364 z"
       style="color:#000000;font-style:normal;font-variant:normal;font-weight:normal;font-stretch:normal;font-size:medium;line-height:normal;font-family:sans-serif;font-variant-ligatures:normal;font-variant-position:normal;font-variant-caps:normal;font-variant-numeric:normal;font-variant-alternates:normal;font-feature-settings:normal;text-indent:0;text-align:start;text-decoration:none;text-decoration-line:none;text-decoration-style:solid;text-decoration-color:#000000;letter-spacing:normal;word-spacing:normal;text-transform:none;writing-mode:lr-tb;direction:ltr;text-orientation:mixed;dominant-baseline:auto;baseline-shift:baseline;text-anchor:start;white-space:normal;shape-padding:0;clip-rule:nonzero;display:inline;overflow:visible;visibility:visible;opacity:1;isolation:auto;mix-blend-mode:normal;color-interpolation:sRGB;color-interpolation-filters:linearRGB;solid-color:#000000;solid-opacity:1;vector-effect:none;fill:#000000;fill-opacity:1;fill-rule:nonzero;stroke:none;stroke-width:1.39999998;stroke-linecap:round;stroke-linejoin:round;stroke-miterlimit:4;stroke-dasharray:none;stroke-dashoffset:0;stroke-opacity:1;paint-order:normal;color-rendering:auto;image-rendering:auto;shape-rendering:auto;text-rendering:auto;enable-background:accumulate" />
    <path
       id="path901"
       d="m 148.62969,33.210415 c 0,0 5.63751,-6.159684 9.19427,-7.540625 5.83271,-2.264602 18.52083,-0.926041 18.52083,-0.926041"
       style="opacity:1;fill:none;stroke:#000000;stroke-width:0.80000001;stroke-linecap:round;stroke-linejoin:round;stroke-miterlimit:4;stroke-dasharray:none;stroke-opacity:1;paint-order:normal" />
    <path
       id="path903"
       d="m 163.87962,24.755244 c -1.36698,0.160285 -2.99979,-0.04192 -4.44422,0.302055 -1.2705,0.302557 -3.59267,1.431274 -3.60923,1.524732 -0.82665,4.366382 -0.0181,8.574772 2.97656,12.433594 0.32682,0.42188 13.30749,-0.489304 15.55314,-1.565994 2.93343,-7.388471 3.91413,-8.547171 1.99331,-12.82391 0.0504,-0.25164 -8.3411,-0.354561 -12.46956,0.129523 z"
       style="color:#000000;font-style:normal;font-variant:normal;font-weight:normal;font-stretch:normal;font-size:medium;line-height:normal;font-family:sans-serif;font-variant-ligatures:normal;font-variant-position:normal;font-variant-caps:normal;font-variant-numeric:normal;font-variant-alternates:normal;font-feature-settings:normal;text-indent:0;text-align:start;text-decoration:none;text-decoration-line:none;text-decoration-style:solid;text-decoration-color:#000000;letter-spacing:normal;word-spacing:normal;text-transform:none;writing-mode:lr-tb;direction:ltr;text-orientation:mixed;dominant-baseline:auto;baseline-shift:baseline;text-anchor:start;white-space:normal;shape-padding:0;clip-rule:nonzero;display:inline;overflow:visible;visibility:visible;opacity:1;isolation:auto;mix-blend-mode:normal;color-interpolation:sRGB;color-interpolation-filters:linearRGB;solid-color:#000000;solid-opacity:1;vector-effect:none;fill:#000000;fill-opacity:1;fill-rule:nonzero;stroke:none;stroke-width:0.80000001;stroke-linecap:round;stroke-linejoin:round;stroke-miterlimit:4;stroke-dasharray:none;stroke-dashoffset:0;stroke-opacity:1;paint-order:normal;color-rendering:auto;image-rendering:auto;shape-rendering:auto;text-rendering:auto;enable-background:accumulate" />
    <path
       id="path907"
       d="m 176.51816,25.066618 c 1.39199,4.578356 0.32411,7.098509 -2.47893,12.394624"
       style="opacity:1;fill:#000000;stroke:#000000;stroke-width:0.80000001;stroke-linecap:round;stroke-linejoin:round;stroke-miterlimit:4;stroke-dasharray:none;stroke-opacity:1;paint-order:normal" />
  </g>
</svg>
